PathFileType	3	(X/Y/Z)	D:\minhoCalibration\240510\subject2_KPNP\preferred\preferred09.trc
DataRate	CameraRate	NumFrames	NumMarkers	Units	OrigDataRate	OrigDataStartFrame	OrigNumFrames
200.0	200.0	15	10	mm	200.0	468	221	
Frame#	Time	Left_Ankle_Outer1			Left_Ankle_Inner1			Left_Knee_Outer1			Left_Knee_Inner1			Left_Wrist1			Right_Wrist1			Right_Knee_Inner1			Right_Knee_Outer1			Right_Ankle_Inner1			Right_Ankle_Outer1			
		X1	Y1	Z1	X2	Y2	Z2	X3	Y3	Z3	X4	Y4	Z4	X5	Y5	Z5	X6	Y6	Z6	X7	Y7	Z7	X8	Y8	Z8	X9	Y9	Z9	X10	Y10	Z10	
468	2.33	-629.51349	80.937538	-724.44794	-656.31482	85.270775	-672.51349	-503.16937	507.37082	-693.84454	-583.57184	496.17966	-641.59424	-464.12619	993.06122	-720.0705	-800.84357	1011.455	-671.26172	-791.6864	500.21536	-577.38501	-871.07581	537.05328	-614.24908	-806.12201	146.22269	-798.43536	-895.1084	175.14243	-838.2644
469	2.335	-629.49335	80.884789	-724.54706	-656.14209	85.829048	-671.83484	-503.82571	507.42804	-693.16241	-584.90979	495.41977	-644.15894	-465.90375	993.4433	-718.55963	-803.32275	1010.0507	-674.83459	-794.16504	498.29129	-587.25635	-872.586	535.20667	-625.07745	-805.54608	143.67162	-806.72699	-894.44293	171.71188	-846.78021
470	2.34	-629.50739	80.815834	-724.58636	-656.38965	85.612312	-672.03479	-504.36926	507.48611	-692.26978	-586.15411	495.3735	-644.19971	-467.7847	993.89362	-717.12177	-805.74219	1008.6335	-678.38043	-796.27655	495.72726	-599.90948	-873.68054	533.38098	-635.28931	-805.29938	141.16852	-814.46259	-894.02783	168.26047	-854.63965
471	2.345	-629.46899	80.809395	-724.63757	-656.38654	85.31395	-672.75049	-504.82202	507.57343	-691.25385	-587.35217	495.34137	-643.97638	-469.7298	994.34418	-715.83136	-808.16003	1007.2728	-681.95447	-796.86871	494.14429	-609.07117	-874.68964	531.38208	-645.92328	-805.10809	138.73322	-821.82745	-893.7995	164.89531	-862.05457
472	2.35	-629.40698	80.77169	-724.62579	-657.90576	83.097992	-677.93207	-505.3255	507.62488	-690.02991	-588.50189	495.18909	-643.96008	-471.87106	994.72833	-714.46521	-810.53705	1005.9252	-685.62946	-797.784	492.52826	-620.00201	-874.97504	529.63593	-657.48926	-805.04535	136.22624	-828.77655	-893.72638	161.40456	-868.86084
473	2.355	-629.35229	80.84803	-724.5885	-656.48248	85.218468	-672.58826	-505.66907	507.76221	-688.6499	-589.55151	495.10974	-643.7381	-473.83405	995.12274	-713.42511	-813.12732	1004.6379	-689.40881	-797.72516	490.49118	-630.10834	-875.94977	527.76733	-665.21368	-804.74469	133.91322	-834.91394	-893.64069	157.81273	-874.80981
474	2.36	-629.276	80.85527	-724.60291	-657.90436	83.168182	-677.55823	-505.9328	507.91144	-687.31274	-590.44977	495.07477	-643.37537	-476.01273	995.52667	-712.37891	-815.54694	1003.3403	-693.16302	-797.70105	489.19785	-640.37811	-875.7298	526.4671	-675.96448	-804.41376	131.29008	-839.90002	-893.70007	153.78654	-879.72784
475	2.365	-629.23444	80.954002	-724.52722	-656.41174	85.385063	-672.29572	-506.1481	508.0799	-685.82281	-591.23132	495.06738	-642.74799	-478.14243	995.98865	-711.5116	-818.01367	1002.1423	-696.92871	-797.73383	488.49225	-650.58875	-876.24115	524.98499	-685.08191	-804.1778	128.37753	-843.26581	-893.62976	149.72661	-883.66711
476	2.37	-629.12872	81.020317	-724.48816	-655.09399	84.928696	-675.80762	-506.11829	508.38458	-684.43298	-591.81702	495.16537	-642.20099	-480.26804	996.40558	-710.80896	-820.51318	1001.0068	-700.81873	-797.62384	487.88956	-660.5047	-876.96857	523.64667	-693.33514	-804.26733	125.21426	-845.27625	-893.74158	145.35284	-886.34369
477	2.375	-629.07269	81.069077	-724.43042	-656.50623	85.468903	-672.23224	-506.14749	508.68939	-682.96631	-592.19696	495.25009	-641.50262	-482.35123	996.92645	-710.16229	-822.95642	999.9231	-704.69122	-797.81689	487.61584	-670.40198	-876.51422	523.16058	-703.64929	-805.09479	121.77229	-846.45813	-893.95801	141.19283	-888.81256
478	2.38	-628.92792	81.166862	-724.3941	-655.09692	85.090225	-675.86218	-506.18832	508.85211	-681.53094	-592.50342	495.49551	-640.53735	-484.83157	997.38843	-709.70496	-825.21796	998.88342	-708.42432	-797.98016	487.47156	-679.27771	-877.31042	522.92139	-712.90424	-806.20789	118.33082	-846.97931	-893.90338	137.85692	-891.20013
479	2.385	-628.81366	81.350975	-724.33307	-657.48029	83.522758	-677.60565	-506.00095	509.24557	-680.0246	-592.62494	495.625	-639.73834	-487.00537	997.82196	-709.36749	-827.42969	997.95612	-712.07764	-798.04144	487.25778	-687.81232	-878.18201	522.30939	-721.5083	-806.98962	115.24754	-847.30695	-894.0163	134.61162	-893.20508
480	2.39	-628.64575	81.483131	-724.23834	-656.0174	86.643158	-670.66663	-505.89551	509.48615	-678.59601	-592.58032	495.86029	-638.71942	-488.98172	998.30804	-709.13092	-829.54755	997.05273	-715.62793	-798.97333	487.30975	-695.22192	-879.42108	521.65204	-730.55139	-807.10321	112.80027	-847.56592	-893.43835	132.4321	-895.5882
481	2.395	-628.51257	81.627785	-724.13458	-655.01532	85.096428	-675.91223	-505.58698	509.78195	-677.20465	-592.46893	496.01642	-637.60638	-491.19516	998.66943	-709.15027	-831.62683	996.24146	-719.13971	-800.34155	487.96573	-702.02704	-880.27582	522.0329	-739.53583	-806.41101	111.408	-847.74371	-892.85718	130.43132	-897.69745
482	2.4	-628.34619	81.772675	-724.06256	-655.89435	86.660698	-670.88391	-505.32831	510.14041	-675.79736	-592.21301	496.1937	-636.46344	-493.34262	999.05768	-709.34943	-833.64014	995.5368	-722.52673	-801.96252	488.39908	-708.31311	-881.23706	522.04291	-747.6236	-805.74561	110.87882	-848.16687	-892.20575	128.38899	-899.68164
